<?xml version="1.0" encoding="UTF-8" standalone="no"?>
<!-- Created with Inkscape (http://www.inkscape.org/) -->

<svg
   width="600.00043"
   height="300.00024"
   viewBox="0 0 150.00011 75.000061"
   version="1.1"
   id="svg5"
   inkscape:version="1.2.1 (9c6d41e410, 2022-07-14)"
   sodipodi:docname="HoistDark.svg"
   xmlns:inkscape="http://www.inkscape.org/namespaces/inkscape"
   xmlns:sodipodi="http://sodipodi.sourceforge.net/DTD/sodipodi-0.dtd"
   xmlns="http://www.w3.org/2000/svg"
   xmlns:svg="http://www.w3.org/2000/svg">
  <sodipodi:namedview
     id="namedview7"
     pagecolor="#000000"
     bordercolor="#000000"
     borderopacity="0.25"
     inkscape:showpageshadow="2"
     inkscape:pageopacity="0"
     inkscape:pagecheckerboard="0"
     inkscape:deskcolor="#d1d1d1"
     inkscape:document-units="px"
     showgrid="false"
     inkscape:zoom="1.18"
     inkscape:cx="380.08475"
     inkscape:cy="213.55932"
     inkscape:window-width="2560"
     inkscape:window-height="1529"
     inkscape:window-x="1912"
     inkscape:window-y="108"
     inkscape:window-maximized="1"
     inkscape:current-layer="layer1" />
  <defs
     id="defs2" />
  <g
     inkscape:label="Layer 1"
     inkscape:groupmode="layer"
     id="layer1"
     transform="translate(-25.42368,-62.499972)">
    <path
       id="path646"
       style="font-size:70.5556px;-inkscape-font-specification:sans-serif;fill:#1a1a1a;fill-opacity:1;stroke-width:0.209378"
       d="m 137.16442,92.392381 c -0.95396,0.04215 -1.86202,0.0787 -2.93018,0.08073 -3.67008,0.0067 -20.6938,0.336636 -22.24415,0.523238 -1.26534,1.695958 -1.04988,4.379864 0.74658,7.488791 1.16242,2.01165 2.52135,3.65732 4.07666,4.93588 1.55526,1.27857 3.35147,2.37346 5.38867,3.28494 2.03718,0.91146 4.38044,1.82203 7.02931,2.7323 2.68965,0.91021 4.81684,1.73042 6.38135,2.45972 1.60525,0.72922 2.84308,1.45852 3.71435,2.18913 0.87126,0.73062 1.57125,1.5538 2.09962,2.4682 0.95105,1.6459 1.10555,2.9729 0.46338,3.98109 -0.66858,0.96249 -2.36892,1.44628 -5.10108,1.45112 -1.91661,0.004 -3.98482,-0.28931 -6.20411,-0.88004 -2.20491,-0.63651 -4.1713,-1.31962 -5.89893,-2.0486 l 3.1709,5.48653 c 1.68684,0.72905 3.46408,1.29743 5.33302,1.70575 1.90967,0.40825 4.00644,0.61032 6.29004,0.60547 3.99629,-0.008 6.6491,-0.92786 7.95753,-2.7612 1.30839,-1.83335 0.93173,-4.53316 -1.12891,-8.09924 -1.13598,-1.96593 -2.46107,-3.58796 -3.97559,-4.86662 -1.54094,-1.32436 -3.30925,-2.44265 -5.30567,-3.3542 -1.99642,-0.91155 -4.28553,-1.79939 -6.86719,-2.66404 -2.58167,-0.86465 -4.7029,-1.63834 -6.3633,-2.32168 -1.61964,-0.68343 -2.89244,-1.36783 -3.81884,-2.05259 -0.92639,-0.68477 -1.69316,-1.5527 -2.30077,-2.60424 -0.79255,-1.371578 -0.8431,-2.447675 -0.1504,-3.22714 0.707,-0.825274 16.55618,-0.471987 18.66407,-0.589016 0.13776,0.03193 0.55822,0.02021 1.07569,-0.01048 l 0.003,0.01747 4.69922,-0.09068 12.40284,21.198636 c 1.71718,2.97176 3.49948,5.27904 5.34765,6.9232 1.84818,1.64416 3.68379,2.80771 5.50732,3.49075 1.83788,0.63723 3.61344,0.9542 5.32619,0.9513 0.97866,-0.002 1.93218,-0.11874 2.86034,-0.34932 0.95458,-0.18494 1.62478,-0.43783 2.01075,-0.75896 l -2.65479,-4.59453 c -0.39803,0.22963 -0.9861,0.41384 -1.76317,0.55264 -0.77707,0.13884 -1.57361,0.20834 -2.38917,0.21029 -1.50882,0.002 -3.05627,-0.52006 -4.64258,-1.56971 -1.57195,-1.09546 -3.00481,-2.76341 -4.29932,-5.00365 l -12.28468,-21.259437 9.48146,-0.01842 -1.91651,-3.538589 -9.29541,-0.245674 m 0,0 c -2.99007,-0.07908 1.26849,-4.984324 1.99365,-5.50397 0.98382,-0.68037 3.37772,-1.752254 5.15088,-1.327532 l 2.76172,4.468457 9.4e-4,0.002 h 4.8e-4 c 0.008,0.0019 10.73374,3.382621 19.27931,-6.593802 0.14687,-0.171502 -12.75342,-17.935621 -12.75342,-17.935621 -3.22449,2.975092 -7.71114,5.683741 -11.95167,5.181558 -1.91781,-3.247759 -3.60097,-6.10182 -3.75342,-6.382016 l 0.006,0.003 c -0.0318,-0.05027 -0.0272,-0.04043 -0.008,-0.004 -0.0287,-0.01128 -3.90128,-1.573414 -7.96386,-1.629016 l 1.2e-4,-6.4e-5 0.002,4.99e-4 4.9e-4,4.98e-4 c -1.59564,-0.02185 -3.21917,0.189104 -4.64893,0.818246 -5.08359,2.236907 -6.33154,5.9111 -6.33154,5.9111 l 9.79005,17.819511 c 1.05743,2.231464 2.98265,4.388322 -0.0698,5.342017 M 30.806496,76.232282 l -5.382816,0.0095 30.117203,52.120548 5.382817,-0.01 -10.977057,-18.99656 c -2.48333,-4.29762 -3.712774,-7.59069 -3.68799,-9.879242 0.03914,-2.334369 1.893887,-3.505053 5.563967,-3.512184 4.89345,-0.01001 9.044179,2.934002 12.452156,8.831786 l 13.59229,23.52279 5.321786,-0.01 L 69.358763,104.3745 C 66.637672,99.665547 63.650051,96.261626 60.395867,94.162493 57.156046,92.017548 53.558435,90.94863 49.602893,90.956287 c -2.120493,0.0039 -3.820821,0.487968 -5.101077,1.451613 -1.239475,0.963578 -1.847615,2.384623 -1.824708,4.261163 H 42.30992 c -0.720758,-1.600639 -1.61026,-3.315424 -2.666993,-5.14419 z m 63.112828,2.577324 c -1.144092,0.0036 -1.871274,0.412136 -2.179683,1.22986 -0.342086,0.759473 -0.02447,1.985276 0.95263,3.676124 0.977018,1.690842 2.092035,2.943084 3.343763,3.757849 1.218076,0.756504 2.398849,1.133919 3.542969,1.13169 1.040107,-0.0039 1.731147,-0.382662 2.073247,-1.142155 0.36041,-0.817889 0.0521,-2.072986 -0.92481,-3.763829 -0.977055,-1.690849 -2.100557,-2.913796 -3.370612,-3.670144 -1.25177,-0.814672 -2.397393,-1.221376 -3.437504,-1.219395 z M 79.929565,90.819175 c -4.730252,0.0087 -7.510276,1.662723 -8.340335,4.959809 -0.78927,3.296961 0.572787,7.985476 4.086427,14.066136 2.351245,4.06903 5.011684,7.54265 7.980968,10.42042 2.942865,2.83206 5.971289,4.99972 9.085943,6.50411 3.128999,1.45882 6.141332,2.18647 9.036632,2.18066 4.68957,-0.009 7.43662,-1.68578 8.24024,-5.02857 0.84442,-3.34284 -0.49075,-8.05474 -4.0044,-14.13542 -2.35123,-4.069 -4.98494,-7.49655 -7.90137,-10.282885 -2.902055,-2.832124 -5.917916,-4.977745 -9.046884,-6.436327 -3.155426,-1.504335 -6.201141,-2.253622 -9.137221,-2.247933 z m 24.631365,0.830205 -5.382813,0.0095 21.239763,36.75876 5.38331,-0.0105 z m -21.821304,4.245206 c 3.343873,-0.0066 6.503796,1.223239 9.479996,3.689079 2.976185,2.465815 5.719273,5.870275 8.229008,10.213625 2.50976,4.34334 3.72934,7.79682 3.65919,10.36012 -0.0965,2.51745 -1.79603,3.77928 -5.09913,3.78575 -3.343843,0.007 -6.517443,-1.24631 -9.520034,-3.75784 -2.988257,-2.55735 -5.736843,-6.00732 -8.246584,-10.35066 -2.509673,-4.34333 -3.723828,-7.75134 -3.641605,-10.223084 0.08221,-2.471753 1.795391,-3.71051 5.139159,-3.71699 z M 34.974467,132.3972 25.42368,137.50003 H 166.0346 l 9.38917,-5.10283 z"
       sodipodi:nodetypes="cccscsccsscccccccsscsscssccccccscccccscccccccccccccsccccccccccccccccccccccccccccccccccccccccccsccccscccccccccssccccscccccc" />
    <path
       style="font-size:70.5556px;-inkscape-font-specification:sans-serif;display:none;fill:#1a1a1a;fill-opacity:1;stroke-width:0.209378"
       d="m 145.61134,92.241379 c -2.99007,-0.07909 1.26849,-4.98432 1.99365,-5.503971 0.98383,-0.680369 3.37772,-1.752253 5.15088,-1.327531 l 2.76171,4.468456 9.6e-4,0.0019 h 4.8e-4 c 0.008,0.0019 10.73373,3.382623 19.2793,-6.593801 0.14688,-0.171503 -12.75342,-17.935621 -12.75342,-17.935621 -3.22449,2.975092 -7.71113,5.683741 -11.95167,5.181558 -1.91781,-3.247758 -3.60097,-6.10182 -3.75342,-6.382016 l 0.006,0.003 c -0.0318,-0.05027 -0.0272,-0.04042 -0.008,-0.004 -0.0287,-0.01128 -3.90127,-1.573415 -7.96386,-1.629018 l 1.2e-4,-6.3e-5 0.002,4.99e-4 4.9e-4,4.99e-4 c -1.59564,-0.02185 -3.21916,0.189104 -4.64892,0.818245 -5.0836,2.236908 -6.33156,5.9111 -6.33156,5.9111 l 9.79005,17.81951 c 1.05744,2.231463 2.98266,4.388327 -0.0698,5.342016"
       id="path7855" />
  </g>
</svg>
